HIERARCHY
ROOT Hips
{
	OFFSET	0.0000	0.0000	0.0000
	CHANNELS 6 Xposition Yposition Zposition Xrotation Yrotation Zrotation
	JOINT Chest
	{
		OFFSET	0.0000	9.0154	-4.8787
		CHANNELS 3 Xrotation Yrotation Zrotation
		JOINT Chest2
		{
			OFFSET	0.0000	8.2272	0.4298
			CHANNELS 3 Xrotation Yrotation Zrotation
			JOINT Chest3
			{
				OFFSET	0.0000	10.1803	-2.2660
				CHANNELS 3 Xrotation Yrotation Zrotation
				JOINT Neck
				{
					OFFSET	-0.0001	29.1210	3.3175
					CHANNELS 3 Xrotation Yrotation Zrotation
					JOINT Head
					{
						OFFSET	0.0000	9.3538	2.3943
						CHANNELS 3 Xrotation Yrotation Zrotation
						End Site
						{
							OFFSET	-0.0001	18.2265	-1.1497
						}
					}
				}
				JOINT LeftCollar
				{
					OFFSET	2.3161	22.1390	7.5850
					CHANNELS 3 Xrotation Yrotation Zrotation
					JOINT LeftShoulder
					{
						OFFSET	13.8499	-1.1611	-5.1384
						CHANNELS 3 Xrotation Yrotation Zrotation
						JOINT LeftElbow
						{
							OFFSET	-0.1020	-28.7420	-0.2490
							CHANNELS 3 Xrotation Yrotation Zrotation
							JOINT LeftWrist
							{
								OFFSET	0.0695	-23.9770	-0.1436
								CHANNELS 3 Xrotation Yrotation Zrotation
								JOINT LeftFinger1
								{
									OFFSET	0.8127	-9.2928	2.5811
									CHANNELS 3 Xrotation Yrotation Zrotation
									JOINT LeftFinger11
									{
										OFFSET	-0.8476	-3.4760	0.6125
										CHANNELS 3 Xrotation Yrotation Zrotation
										JOINT LeftFinger12
										{
											OFFSET	-0.5788	-2.3730	0.4182
											CHANNELS 3 Xrotation Yrotation Zrotation
											End Site
											{
												OFFSET	-0.5041	-1.6886	0.2739
											}
										}
									}
								}
								JOINT LeftFinger2
								{
									OFFSET	0.9385	-9.4315	0.2247
									CHANNELS 3 Xrotation Yrotation Zrotation
									JOINT LeftFinger21
									{
										OFFSET	0.0120	-4.2978	-0.0254
										CHANNELS 3 Xrotation Yrotation Zrotation
										JOINT LeftFinger22
										{
											OFFSET	0.0073	-2.3823	-0.0145
											CHANNELS 3 Xrotation Yrotation Zrotation
											End Site
											{
												OFFSET	-0.1511	-2.1397	0.0029
											}
										}
									}
								}
								JOINT LeftFinger3
								{
									OFFSET	0.6264	-8.9383	-2.1146
									CHANNELS 3 Xrotation Yrotation Zrotation
									JOINT LeftFinger31
									{
										OFFSET	-0.1974	-3.8998	-0.2442
										CHANNELS 3 Xrotation Yrotation Zrotation
										JOINT LeftFinger32
										{
											OFFSET	-0.1118	-2.2223	-0.1396
											CHANNELS 3 Xrotation Yrotation Zrotation
											End Site
											{
												OFFSET	-0.2416	-1.9649	-0.0929
											}
										}
									}
								}
								JOINT LeftFinger4
								{
									OFFSET	-0.6303	-8.2944	-3.6520
									CHANNELS 3 Xrotation Yrotation Zrotation
									JOINT LeftFinger41
									{
										OFFSET	-0.5002	-2.3988	-0.6622
										CHANNELS 3 Xrotation Yrotation Zrotation
										JOINT LeftFinger42
										{
											OFFSET	-0.3663	-1.7591	-0.4859
											CHANNELS 3 Xrotation Yrotation Zrotation
											End Site
											{
												OFFSET	-0.4290	-1.5613	-0.3582
											}
										}
									}
								}
								JOINT LeftFinger0
								{
									OFFSET	-1.4550	-1.9224	1.4574
									CHANNELS 3 Xrotation Yrotation Zrotation
									JOINT LeftFinger01
									{
										OFFSET	-1.1754	-3.5791	2.6984
										CHANNELS 3 Xrotation Yrotation Zrotation
										JOINT LeftFinger02
										{
											OFFSET	-0.8433	-2.3568	1.6980
											CHANNELS 3 Xrotation Yrotation Zrotation
											End Site
											{
												OFFSET	-0.5966	-1.7331	1.1867
											}
										}
									}
								}
							}
						}
					}
				}
				JOINT RightCollar
				{
					OFFSET	-2.3161	22.1390	7.5850
					CHANNELS 3 Xrotation Yrotation Zrotation
					JOINT RightShoulder
					{
						OFFSET	-13.8523	-1.1613	-5.1393
						CHANNELS 3 Xrotation Yrotation Zrotation
						JOINT RightElbow
						{
							OFFSET	0.1020	-28.7420	-0.2490
							CHANNELS 3 Xrotation Yrotation Zrotation
							JOINT RightWrist
							{
								OFFSET	-0.0696	-23.9770	-0.1436
								CHANNELS 3 Xrotation Yrotation Zrotation
								JOINT RightFinger1
								{
									OFFSET	-0.8128	-9.2928	2.5811
									CHANNELS 3 Xrotation Yrotation Zrotation
									JOINT RightFinger11
									{
										OFFSET	0.8476	-3.4760	0.6125
										CHANNELS 3 Xrotation Yrotation Zrotation
										JOINT RightFinger12
										{
											OFFSET	0.5789	-2.3729	0.4183
											CHANNELS 3 Xrotation Yrotation Zrotation
											End Site
											{
												OFFSET	0.5041	-1.6886	0.2739
											}
										}
									}
								}
								JOINT RightFinger2
								{
									OFFSET	-0.9386	-9.4315	0.2247
									CHANNELS 3 Xrotation Yrotation Zrotation
									JOINT RightFinger21
									{
										OFFSET	-0.0120	-4.2979	-0.0254
										CHANNELS 3 Xrotation Yrotation Zrotation
										JOINT RightFinger22
										{
											OFFSET	-0.0073	-2.3823	-0.0146
											CHANNELS 3 Xrotation Yrotation Zrotation
											End Site
											{
												OFFSET	0.1511	-2.1397	0.0029
											}
										}
									}
								}
								JOINT RightFinger3
								{
									OFFSET	-0.6264	-8.9383	-2.1147
									CHANNELS 3 Xrotation Yrotation Zrotation
									JOINT RightFinger31
									{
										OFFSET	0.1974	-3.8998	-0.2442
										CHANNELS 3 Xrotation Yrotation Zrotation
										JOINT RightFinger32
										{
											OFFSET	0.1118	-2.2223	-0.1396
											CHANNELS 3 Xrotation Yrotation Zrotation
											End Site
											{
												OFFSET	0.2416	-1.9649	-0.0929
											}
										}
									}
								}
								JOINT RightFinger4
								{
									OFFSET	0.6303	-8.2944	-3.6520
									CHANNELS 3 Xrotation Yrotation Zrotation
									JOINT RightFinger41
									{
										OFFSET	0.5002	-2.3988	-0.6622
										CHANNELS 3 Xrotation Yrotation Zrotation
										JOINT RightFinger42
										{
											OFFSET	0.3662	-1.7590	-0.4859
											CHANNELS 3 Xrotation Yrotation Zrotation
											End Site
											{
												OFFSET	0.4290	-1.5613	-0.3582
											}
										}
									}
								}
								JOINT RightFinger0
								{
									OFFSET	1.4549	-1.9224	1.4572
									CHANNELS 3 Xrotation Yrotation Zrotation
									JOINT RightFinger01
									{
										OFFSET	1.1756	-3.5791	2.6985
										CHANNELS 3 Xrotation Yrotation Zrotation
										JOINT RightFinger02
										{
											OFFSET	0.8432	-2.3567	1.6979
											CHANNELS 3 Xrotation Yrotation Zrotation
											End Site
											{
												OFFSET	0.5966	-1.7331	1.1867
											}
										}
									}
								}
							}
						}
					}
				}
			}
		}
	}
	JOINT RightHip
	{
		OFFSET	-9.6442	4.0752	-0.7950
		CHANNELS 3 Xrotation Yrotation Zrotation
		JOINT RightKnee
		{
			OFFSET	-0.7717	-41.9481	0.0000
			CHANNELS 3 Xrotation Yrotation Zrotation
			JOINT RightAnkle
			{
				OFFSET	0.0000	-41.1905	0.0000
				CHANNELS 3 Xrotation Yrotation Zrotation
				JOINT RightToe
				{
					OFFSET	0.0000	-4.5272	9.4670
					CHANNELS 3 Xrotation Yrotation Zrotation
					End Site
					{
						OFFSET	0.0000	0.0000	6.3510
					}
				}
			}
		}
	}
	JOINT LeftHip
	{
		OFFSET	9.6441	4.0755	-0.7950
		CHANNELS 3 Xrotation Yrotation Zrotation
		JOINT LeftKnee
		{
			OFFSET	0.7718	-41.9484	0.0000
			CHANNELS 3 Xrotation Yrotation Zrotation
			JOINT LeftAnkle
			{
				OFFSET	0.0000	-41.1905	0.0000
				CHANNELS 3 Xrotation Yrotation Zrotation
				JOINT LeftToe
				{
					OFFSET	0.0000	-4.5272	9.4670
					CHANNELS 3 Xrotation Yrotation Zrotation
					End Site
					{
						OFFSET	0.0000	0.0000	6.3510
					}
				}
			}
		}
	}
}
MOTION
Frames:	4
Frame Time: 0.0333333000
	65.0991	88.9214	24.1936	6.359881	47.111530	-7.586912	3.759876	-3.591716	-0.168789	3.759877	-3.591716	-0.168788	3.759876	-3.591709	-0.168790	-0.000001	-0.000004	0.000001	0.000000	-0.000001	0.000000	-0.000001	-0.000006	-12.822710	7.564108	-17.343240	36.841390	-42.323770	-0.260468	0.658508	-0.000002	0.000001	0.000000	0.000000	0.000000	0.000000	0.000000	0.000000	0.000000	0.000000	0.000000	0.000000	0.000000	0.000000	0.000000	0.000000	0.000000	0.000000	0.000000	0.000000	0.000000	0.000000	0.000000	0.000000	0.000000	0.000000	0.000000	0.000000	0.000000	0.000000	0.000000	0.000000	0.000000	0.000000	0.000000	0.000000	0.000000	0.000000	0.000000	0.000000	0.000000	0.000000	0.000000	0.000000	0.000000	0.000000	0.000000	0.000000	0.000001	-0.000003	12.466300	15.064330	19.360060	-34.995500	-36.862860	0.200475	-0.587254	-0.000001	0.000002	0.000001	0.000000	0.000002	0.000000	0.000000	0.000002	0.000000	0.000000	0.000002	0.000000	0.000000	0.000002	0.000000	0.000000	0.000002	0.000000	0.000000	0.000002	0.000000	0.000000	0.000002	0.000000	0.000000	0.000002	0.000000	0.000000	0.000002	0.000000	0.000000	0.000002	0.000000	0.000000	0.000002	0.000000	0.000000	0.000002	0.000000	0.000000	0.000002	0.000000	0.000000	0.000002	0.000000	0.000000	0.000002	0.000000	-26.021620	-2.736046	3.831943	18.712960	0.000001	0.000001	5.365750	-0.373667	-0.065445	0.000000	0.000000	0.000000	-0.219618	1.131488	1.690693	16.817480	0.000007	-0.000001	-4.644788	-3.531953	-1.843943	0.000000	-0.000001	0.000001
	68.0127	88.1044	26.6165	6.155821	48.170120	-6.752105	3.741383	-3.724655	-0.184174	3.741385	-3.724654	-0.184175	3.741381	-3.724656	-0.184173	0.000000	0.000000	0.000000	0.000000	0.000000	0.000000	0.000000	-0.000001	-12.763630	7.257900	-18.566720	38.460730	-47.131130	-0.318667	0.716259	0.000002	0.000000	-0.000004	0.000000	0.000000	0.000002	0.000002	-0.000001	-0.000003	0.000000	0.000000	0.000002	0.000000	0.000000	0.000002	0.000002	-0.000001	-0.000003	0.000000	0.000000	0.000002	0.000000	0.000000	0.000002	0.000002	-0.000001	-0.000003	0.000000	0.000000	0.000002	0.000000	0.000000	0.000002	0.000002	-0.000001	-0.000003	0.000000	0.000000	0.000002	0.000000	0.000000	0.000002	0.000002	-0.000001	-0.000003	0.000000	0.000000	0.000002	-0.000001	0.000001	12.477780	15.614050	19.672710	-35.196010	-33.070770	0.162954	-0.534579	0.000000	0.000004	0.000002	0.000000	-0.000002	0.000000	0.000000	-0.000002	0.000000	0.000000	-0.000002	0.000000	0.000000	-0.000002	0.000000	0.000000	-0.000002	0.000000	0.000000	-0.000002	0.000000	0.000000	-0.000002	0.000000	0.000000	-0.000002	0.000000	0.000000	-0.000002	0.000000	0.000000	-0.000002	0.000000	0.000000	-0.000002	0.000000	0.000000	-0.000002	0.000000	0.000000	-0.000002	0.000000	0.000000	-0.000002	0.000000	0.000000	-0.000002	0.000000	-24.940280	-3.056333	3.072593	11.683100	0.000000	-0.000001	8.144243	2.098127	0.871181	0.000000	0.000000	0.000000	2.307108	1.282526	1.154796	17.209420	-0.000003	0.000001	-5.604558	-4.406028	-2.374164	-0.000001	0.000003	-0.000002
	70.8873	87.3330	29.0933	6.380296	49.521680	-6.170069	3.730543	-3.843721	-0.194475	3.730544	-3.843721	-0.194475	3.730543	-3.843722	-0.194475	0.000000	-0.000001	0.000000	0.000000	-0.000001	0.000000	0.000001	-0.000001	-12.707710	7.188408	-19.349130	39.804230	-52.270390	-0.386000	0.772350	-0.000001	0.000000	0.000001	-0.000001	0.000000	0.000001	-0.000001	0.000000	0.000001	-0.000001	0.000000	0.000001	-0.000001	0.000000	0.000001	-0.000001	0.000000	0.000001	-0.000001	0.000000	0.000001	-0.000001	0.000000	0.000001	-0.000001	0.000000	0.000001	-0.000001	0.000000	0.000001	-0.000001	0.000000	0.000001	-0.000001	0.000000	0.000001	-0.000001	0.000000	0.000001	-0.000001	0.000000	0.000001	-0.000001	0.000000	0.000001	-0.000001	0.000000	0.000001	0.000001	-0.000002	12.480920	16.260640	19.373230	-35.495620	-30.809100	0.142268	-0.502019	0.000001	0.000002	-0.000001	0.000000	0.000002	0.000000	0.000000	0.000002	0.000000	0.000000	0.000002	0.000000	0.000000	0.000002	0.000000	0.000000	0.000002	0.000000	0.000000	0.000002	0.000000	0.000000	0.000002	0.000000	0.000000	0.000002	0.000000	0.000000	0.000002	0.000000	0.000000	0.000002	0.000000	0.000000	0.000002	0.000000	0.000000	0.000002	0.000000	0.000000	0.000002	0.000000	0.000000	0.000002	0.000000	0.000000	0.000002	0.000000	-24.915820	-3.016794	2.330133	9.019238	-0.000001	-0.000001	9.999733	2.777112	1.051252	0.000000	0.000000	0.000000	3.804987	1.183440	0.652753	18.621130	0.000001	0.000000	-5.068564	-4.814741	-2.554940	0.000000	0.000000	0.000000
	73.6152	86.9283	31.6248	7.421941	50.326100	-6.535415	3.727371	-3.946979	-0.200153	3.727372	-3.946979	-0.200153	3.727373	-3.946972	-0.200153	-0.000001	-0.000003	0.000000	0.000000	0.000000	0.000000	-0.000001	-0.000005	-12.655390	7.617526	-18.641670	41.109970	-57.473830	-0.459021	0.822782	0.000002	0.000000	-0.000001	-0.000001	0.000000	0.000000	-0.000004	0.000000	0.000000	-0.000001	0.000000	0.000000	-0.000001	0.000000	0.000000	-0.000004	0.000000	0.000000	-0.000001	0.000000	0.000000	-0.000001	0.000000	0.000000	-0.000004	0.000000	0.000000	-0.000001	0.000000	0.000000	-0.000001	0.000000	0.000000	-0.000004	0.000000	0.000000	-0.000001	0.000000	0.000000	-0.000001	0.000000	0.000000	-0.000004	0.000000	0.000000	-0.000001	0.000000	0.000000	0.000000	-0.000004	12.490450	16.456220	19.095510	-35.521840	-29.623750	0.131944	-0.484638	0.000000	0.000000	0.000000	0.000000	0.000000	0.000000	0.000000	0.000000	0.000000	0.000000	0.000000	0.000000	0.000000	0.000000	0.000000	0.000000	0.000000	0.000000	0.000000	0.000000	0.000000	0.000000	0.000000	0.000000	0.000000	0.000000	0.000000	0.000000	0.000000	0.000000	0.000000	0.000000	0.000000	0.000000	0.000000	0.000000	0.000000	0.000000	0.000000	0.000000	0.000000	0.000000	0.000000	0.000000	0.000000	0.000000	0.000000	0.000000	-26.521340	-2.976036	2.181461	11.552830	0.000000	0.000001	9.884137	1.510048	0.575800	0.000000	0.000000	0.000000	3.780194	1.161546	0.553881	21.379400	0.000004	0.000000	-2.205294	-4.267498	-2.140558	-0.000001	0.000000	-0.000001
